<svg width="100" height="100" viewBox="0 0 100 100" fill="none" xmlns="http://www.w3.org/2000/svg">
<path d="M28.1146 33.0421V9H90.9855V91H28.1146" stroke="white" stroke-width="6" stroke-linecap="round"/>
<path d="M40.0455 24.1733H80.5683" stroke="white" stroke-width="6" stroke-linecap="round"/>
<path d="M48.0152 37.2236H80.5683" stroke="white" stroke-width="6" stroke-linecap="round"/>
<path d="M50.8571 50.2737H80.5652" stroke="white" stroke-width="6" stroke-linecap="round"/>
<path d="M50.8571 63.324H80.5652" stroke="white" stroke-width="6" stroke-linecap="round"/>
<path d="M50.8571 76.374H80.5652" stroke="white" stroke-width="6" stroke-linecap="round"/>
<path d="M38.1708 43.3457H12.0706C11.6467 43.3457 11.303 43.6894 11.303 44.1134V79.4254C11.303 79.8494 11.6467 80.1931 12.0706 80.1931H38.1708C38.5948 80.1931 38.9385 79.8494 38.9385 79.4254V44.1134C38.9385 43.6894 38.5948 43.3457 38.1708 43.3457Z" stroke="white" stroke-width="6"/>
<path d="M19.4685 52.2122H30.773" stroke="white" stroke-width="6" stroke-linecap="round"/>
<path d="M19.4685 61.769H30.773" stroke="white" stroke-width="6" stroke-linecap="round"/>
<path d="M19.4685 71.3257H30.773" stroke="white" stroke-width="6" stroke-linecap="round"/>
</svg>
