<svg width="100" height="100" viewBox="0 0 100 100" fill="none" xmlns="http://www.w3.org/2000/svg">
<path d="M49.5002 100L21.9046 59.6122C19.3176 56.0602 17.4325 52.0349 16.3532 47.7578C15.2192 43.3769 14.7936 38.8387 15.0928 34.3198C15.3592 29.8079 16.3545 25.3708 18.039 21.1856C19.6567 17.098 22.0597 13.3768 25.1084 10.2382C28.364 6.92698 32.2456 4.3156 36.5206 2.56039C40.6429 0.863971 45.0509 -0.00555978 49.5002 3.12747e-05C53.9497 -0.00601002 58.3581 0.863247 62.4807 2.55957C66.7552 4.3148 70.6362 6.92619 73.8912 10.2373C76.94 13.376 79.343 17.0971 80.9606 21.1847C82.6451 25.37 83.6404 29.807 83.9068 34.319C84.2067 38.8381 83.7816 43.3765 82.648 47.7578C81.5687 52.0358 79.6834 56.062 77.0958 59.6147L49.5002 99.9992V100ZM49.5002 13.4035C46.3916 13.3974 43.3138 14.027 40.451 15.2546C37.6883 16.4371 35.1785 18.152 33.0608 20.3039C30.9372 22.4499 29.245 24.9933 28.0781 27.7929C26.8666 30.694 26.2453 33.8129 26.2514 36.9631C26.2453 40.1135 26.8666 43.2327 28.0781 46.134C29.245 48.9336 30.9372 51.477 33.0608 53.623C35.1785 55.775 37.6883 57.4898 40.451 58.6723C43.3139 59.8997 46.3917 60.529 49.5002 60.5226C52.6091 60.5288 55.6872 59.8992 58.5502 58.6715C61.3129 57.489 63.8228 55.7741 65.9405 53.6222C68.064 51.4762 69.7562 48.9328 70.9231 46.1332C72.1343 43.2321 72.7553 40.1131 72.749 36.9631C72.7551 33.8129 72.1338 30.694 70.9223 27.7929C69.7554 24.9933 68.0632 22.4499 65.9396 20.3039C63.822 18.152 61.3121 16.4371 58.5494 15.2546C55.6866 14.027 52.6088 13.3974 49.5002 13.4035Z" fill="white"/>
</svg>
