<svg width="100" height="100" viewBox="0 0 100 100" fill="none" xmlns="http://www.w3.org/2000/svg">
<path d="M50.5595 48.2907C58.6802 48.2907 65.2634 41.7075 65.2634 33.5868C65.2634 25.466 58.6802 18.8828 50.5595 18.8828C42.4387 18.8828 35.8555 25.466 35.8555 33.5868C35.8555 41.7075 42.4387 48.2907 50.5595 48.2907Z" stroke="white" stroke-width="6"/>
<path d="M79.3281 45.7335C84.9773 45.7335 89.5569 41.1539 89.5569 35.5047C89.5569 29.8555 84.9773 25.2759 79.3281 25.2759C73.6788 25.2759 69.0992 29.8555 69.0992 35.5047C69.0992 41.1539 73.6788 45.7335 79.3281 45.7335Z" stroke="white" stroke-width="6"/>
<path d="M22.1105 45.7335C27.5832 45.7335 32.0197 41.1539 32.0197 35.5047C32.0197 29.8555 27.5832 25.2759 22.1105 25.2759C16.6378 25.2759 12.2014 29.8555 12.2014 35.5047C12.2014 41.1539 16.6378 45.7335 22.1105 45.7335Z" stroke="white" stroke-width="6"/>
<path d="M27.1897 76.5881C27.1897 76.5881 22.4404 50.2967 51.4194 50.2922C80.3983 50.2878 73.2298 76.5881 73.2298 76.5881C73.2298 76.5881 62.9287 83.7412 51.4194 83.7412C39.91 83.7412 27.1897 76.5881 27.1897 76.5881Z" stroke="white" stroke-width="6"/>
<path d="M17.8682 71.2181C16.4764 70.7444 14.1429 71.0263 10.7642 69.8755C8.50314 69.0536 6.35095 67.9587 4.35525 66.6151C4.35525 66.6151 0.071883 49.4345 21.252 47.4667C29.7675 46.6759 34.2937 49.6154 36.6898 53.4589" stroke="white" stroke-width="6" stroke-linecap="round"/>
<path d="M83.1317 71.218C84.5235 70.7443 86.857 71.0261 90.2357 69.8754C92.4967 69.0534 94.6491 67.9585 96.6448 66.615C96.6448 66.615 100.928 49.4343 79.7479 47.4666C71.6774 46.7173 67.1901 49.3206 64.6981 52.8668" stroke="white" stroke-width="6" stroke-linecap="round"/>
</svg>
