<svg width="469" height="574" viewBox="0 0 469 574" fill="none" xmlns="http://www.w3.org/2000/svg">
<path d="M137.154 38.2509H121.154V573.251H137.154V38.2509Z" fill="#646464"/>
<path d="M90.6541 0.0458984H354.141L370.031 28.3969L354.141 57.4559H90.6541V0.0458984Z" fill="#3E91E5"/>
<path d="M181.308 86.3818H10.308L0 103.074L10.312 120.182H181.312L181.308 86.3818Z" fill="#1FC1C7"/>
<path d="M273.488 573.249C273.488 573.249 382.888 573.559 408.93 564.888C434.972 556.217 377.667 538.564 377.667 538.564C377.667 538.564 437.507 536.449 439.639 530.783C441.771 525.117 386.193 515.899 386.193 515.899C386.193 515.899 442.993 505.28 442.993 500.011C442.993 494.742 386.193 494.823 386.193 494.823C386.193 494.823 495.814 455.643 461.874 444.531C445.379 439.131 351.974 475.785 351.974 475.785L236.444 530.785L204.289 573.252L273.488 573.249Z" fill="#8D5ED2"/>
<path d="M203.288 573.251C203.288 573.251 322.442 541.369 364.905 517.051C407.368 492.733 373.14 475.977 373.14 475.977C373.14 475.977 432.055 435.599 439.067 418.525C446.079 401.451 401.19 407.682 401.19 407.682C401.19 407.682 457.979 346.841 439.067 331.1C420.155 315.359 361.487 372.293 361.487 372.293C361.487 372.293 369.465 334.893 349.405 339.25C329.345 343.607 306.433 403.909 306.433 403.909C306.433 403.909 304.552 360.875 276.567 397.388C248.582 433.901 209.967 549.959 209.967 549.959L203.288 573.251Z" fill="#F36C80"/>
<path d="M294.393 393.508C294.393 393.508 310.912 347.526 331.126 310.018C343.883 286.606 358.646 264.344 375.247 243.481" fill="#E3C7FE"/>
<path d="M320.549 333.028C320.549 333.028 329.407 327.369 336.479 327.766C343.551 328.163 348.837 334.615 348.837 334.615C348.837 334.615 338.706 342.738 331.637 342.341C324.568 341.944 320.549 333.028 320.549 333.028Z" fill="#E3C7FE"/>
<path d="M324.444 321.901C324.444 321.901 317.689 317.775 314.82 312.804C313.09 309.491 312.443 305.717 312.971 302.017C312.971 302.017 321.546 306.172 324.414 311.143C327.281 316.114 324.444 321.901 324.444 321.901Z" fill="#E3C7FE"/>
<path d="M316.606 338.714C316.606 338.714 309.851 334.588 306.982 329.617C305.252 326.304 304.605 322.53 305.134 318.83C305.134 318.83 313.708 322.985 316.576 327.956C319.444 332.927 316.606 338.714 316.606 338.714Z" fill="#E3C7FE"/>
<path d="M335.25 302.808C335.25 302.808 347.721 294.841 357.678 295.4C367.635 295.959 380.078 304.669 380.078 304.669C380.078 304.669 360.81 316.479 350.854 315.92C340.898 315.361 335.25 302.808 335.25 302.808Z" fill="#E3C7FE"/>
<path d="M351.579 276.757C351.579 276.757 364.05 268.791 374.007 269.35C383.964 269.909 393.899 280.333 393.899 280.333C393.899 280.333 377.141 290.428 367.185 289.869C357.229 289.31 351.579 276.757 351.579 276.757Z" fill="#E3C7FE"/>
<path d="M341.699 291.049C341.699 291.049 326.19 282.259 320.946 271.188C315.701 260.118 319.348 241.892 319.348 241.892C319.348 241.892 336.456 252.909 341.7 263.976C346.945 275.043 341.699 291.049 341.699 291.049Z" fill="#E3C7FE"/>
<path d="M356.299 268.47C356.299 268.47 345.265 250.837 344.655 238.554C344.045 226.271 354.056 213.909 354.056 213.909C354.056 213.909 365.765 226.261 366.37 238.545C366.975 250.829 356.299 268.47 356.299 268.47Z" fill="#E3C7FE"/>
<path d="M375.1 244.022C375.1 244.022 374.528 223.105 380.199 212.266C385.87 201.427 400.663 196.108 400.663 196.108C400.663 196.108 404.47 212.857 398.801 223.696C393.132 234.536 375.1 244.022 375.1 244.022Z" fill="#E3C7FE"/>
<path d="M219.31 549.655L442.438 334.077C442.438 334.077 433.344 320.667 413.061 330.405C392.778 340.143 361.299 373.031 361.299 373.031C361.299 373.031 371.455 333.631 349.571 338.919C327.687 344.207 307.403 404.257 307.403 404.257C307.403 404.257 302.792 357.141 277.982 396.922C253.172 436.703 219.31 549.655 219.31 549.655Z" fill="#E45B76"/>
<path d="M190.317 180.128L189.126 141.413L212.21 143.226V167.816L203.453 172.108V180.127L190.317 180.128Z" fill="#F793AF"/>
<path d="M189.126 151.44H194.821V146.14C198.129 146.501 201.467 146.501 204.775 146.14C210.049 145.532 215.616 143.424 217.236 141.127C218.081 139.927 216.271 137.972 214.191 136.249C213.086 135.352 211.931 134.52 210.729 133.757C210.729 133.757 208.572 138.248 207.152 136.339C206.579 135.554 207.852 132.039 205.946 132.3C200.537 133.048 189.126 141.127 189.126 141.127V151.44Z" fill="#141414"/>
<path d="M212.21 159.907H193.774C193.774 159.907 194.058 168.826 198.667 170.824C201.13 171.824 203.846 172.02 206.428 171.386C208.606 170.662 210.586 169.441 212.21 167.819V159.907Z" fill="#C97A90"/>
<path d="M203.681 189.501C203.681 189.501 232.305 265.055 259.241 266.595C286.177 268.135 292.76 254.765 288.006 227.157C283.252 199.549 253.936 165.025 253.936 165.025L242.224 171.579L203.681 189.501Z" fill="#FD3C72"/>
<path d="M113.031 486.064L148.391 491.921L134.309 534.914L99.609 531.485L113.031 486.064Z" fill="#F5B72A"/>
<path d="M203.455 491.711H240.062L242.812 532.821L207.702 536.692L203.455 491.711Z" fill="#F5B710"/>
<path d="M120.353 486.453L117.112 485.645L105.477 532.309L108.718 533.117L120.353 486.453Z" fill="white"/>
<path d="M130.372 488.251L127.131 487.443L115.496 534.107L118.737 534.915L130.372 488.251Z" fill="white"/>
<path d="M139.723 490.029L136.482 489.221L124.847 535.885L128.088 536.693L139.723 490.029Z" fill="white"/>
<path d="M212.349 494.424L209.018 494.657L212.372 542.63L215.704 542.397L212.349 494.424Z" fill="white"/>
<path d="M222.433 493.038L219.101 493.271L222.456 541.244L225.787 541.011L222.433 493.038Z" fill="white"/>
<path d="M231.875 491.839L228.543 492.072L231.898 540.045L235.23 539.812L231.875 491.839Z" fill="white"/>
<path d="M220.221 182.999L169.821 181.759L152.094 265.227C152.094 265.227 152.214 268.727 153.64 270.315C155.066 271.903 157.797 271.587 157.797 271.587L229.087 269.674C229.087 269.674 237.058 269.218 237.58 262.14C238.102 255.062 220.221 182.999 220.221 182.999Z" fill="#9328EF"/>
<path d="M189.467 202.668C193.799 212.56 196.784 222.989 198.345 233.675C200.565 250.338 198.345 269.319 198.345 269.319" stroke="#444444"/>
<path d="M198.748 202.996C203.08 212.888 206.065 223.317 207.626 234.003C209.846 250.666 207.626 269.647 207.626 269.647" stroke="#444444"/>
<path d="M155.781 269.647H229.073L246.622 503.431H196.534L185.655 387.892L155.781 503.431L105.481 491.774L155.781 269.647Z" fill="black"/>
<path d="M205.46 316.178L198.011 318.103L184.739 387.755" stroke="white"/>
<path d="M171.456 269.647C171.456 269.647 172.885 284.947 167.336 295.171C161.787 305.395 149.263 310.56 149.263 310.56" stroke="white"/>
<path d="M193.029 269.647V302.537" stroke="white"/>
<path d="M202.38 269.647V302.537" stroke="white"/>
<path d="M202.149 531.113C202.149 531.113 244.118 526.633 244.229 527.972C244.34 529.311 245.454 547.058 245.454 547.058C245.454 547.058 268.392 546.142 278.018 552.69C287.644 559.238 283.959 573.25 283.959 573.25H208.159L202.149 531.113Z" fill="#FF5858"/>
<path d="M140.857 528.445L97.512 524.124L85.812 572.608H172.248C172.248 572.608 170.937 555.658 165.388 551.519C159.839 547.38 133.688 546.545 133.688 546.545L140.857 528.445Z" fill="#FD5858"/>
<path d="M290.874 144.488L256.819 146.813L254.608 189.64H290.874V144.488Z" fill="#5478D3"/>
<path d="M299.391 196.172C311.196 196.172 320.766 183.313 320.766 167.45C320.766 151.587 311.196 138.728 299.391 138.728C287.586 138.728 278.016 151.587 278.016 167.45C278.016 183.313 287.586 196.172 299.391 196.172Z" fill="#3759AF"/>
<path d="M299.391 192.832C309.72 192.832 318.094 181.468 318.094 167.45C318.094 153.432 309.72 142.068 299.391 142.068C289.062 142.068 280.688 153.432 280.688 167.45C280.688 181.468 289.062 192.832 299.391 192.832Z" fill="#DCEBFD"/>
<path d="M298.055 192.832C307.647 192.832 315.422 181.468 315.422 167.45C315.422 153.432 307.647 142.068 298.055 142.068C288.463 142.068 280.688 153.432 280.688 167.45C280.688 181.468 288.463 192.832 298.055 192.832Z" fill="#98ACE5"/>
<path d="M237.587 173.942C237.587 173.942 247.135 201.031 255.043 217.955C262.951 234.879 269.217 241.639 269.217 241.639" stroke="#444444"/>
<path d="M263.025 233.428L259.892 242.97" stroke="#444444"/>
<path d="M217.587 551.346C221.235 553.124 225.829 551.204 227.849 547.059C229.869 542.913 228.549 538.112 224.901 536.335C221.253 534.558 216.659 536.477 214.639 540.623C212.619 544.768 213.939 549.569 217.587 551.346Z" fill="white"/>
<path d="M104.035 549.342C107.683 551.12 112.277 549.2 114.297 545.055C116.317 540.909 114.997 536.108 111.349 534.331C107.701 532.554 103.107 534.473 101.087 538.619C99.0675 542.764 100.387 547.565 104.035 549.342Z" fill="white"/>
<path d="M206.217 158.526L258.663 143.526L260.258 192.402L203.684 177.771C202.568 174.456 201.926 171 201.776 167.506C201.772 162.742 206.217 158.526 206.217 158.526Z" fill="#5478D3"/>
<path d="M267.997 195.504C279.802 195.504 289.372 182.944 289.372 167.45C289.372 151.956 279.802 139.396 267.997 139.396C256.192 139.396 246.622 151.956 246.622 167.45C246.622 182.944 256.192 195.504 267.997 195.504Z" fill="#3759AF"/>
<path d="M268.665 192.832C278.994 192.832 287.368 181.468 287.368 167.45C287.368 153.432 278.994 142.068 268.665 142.068C258.336 142.068 249.962 153.432 249.962 167.45C249.962 181.468 258.336 192.832 268.665 192.832Z" fill="#DCEBFD"/>
<path d="M265.325 192.832C273.81 192.832 280.688 181.468 280.688 167.45C280.688 153.432 273.81 142.068 265.325 142.068C256.84 142.068 249.962 153.432 249.962 167.45C249.962 181.468 256.84 192.832 265.325 192.832Z" fill="#98ACE5"/>
<path d="M203.681 193.632C204.292 192.724 202.098 175.932 202.098 175.932C202.098 175.932 197.511 170.41 197.907 169.108C198.303 167.806 203.681 170.725 203.681 170.725C204.001 168.003 204.801 165.359 206.044 162.916C207.667 160.176 209.538 157.591 211.635 155.195C214.943 150.939 216.912 153.702 216.912 153.702C216.912 153.702 219.912 153.088 220.918 153.702C221.924 154.316 220.918 156.158 220.918 156.158C220.918 156.158 223.526 157.218 224.049 158.68C224.572 160.142 223.01 162.007 223.01 162.007C223.01 162.007 225.317 161.763 224.049 165.244C223.572 166.553 221.215 168.303 220.071 170.262C219.066 172.027 218.346 173.941 217.938 175.931C217.938 175.931 218.917 186.568 217.938 192.513C216.959 198.458 214.023 199.713 214.023 199.713L203.681 193.632Z" fill="#FEB6CA"/>
<path d="M171.069 180.229C171.069 180.229 147.784 174.453 137.846 195.864C127.908 217.275 107.568 251.453 131.315 265.872C155.062 280.291 188.38 246.664 198.396 232.838C208.412 219.012 217.304 201.497 217.304 201.497L200.312 190.797L149.92 232.836L184.096 192.128L171.069 180.229Z" fill="#FD3C72"/>
<path d="M156.746 180.624C159.887 183.05 162.409 186.186 164.105 189.776C166.476 195.287 166.23 202.668 166.23 202.668" stroke="#444444"/>
<path d="M185.712 173.923L171.366 180.623L187.405 198.023L192.495 185.409L202.134 189.829V183.386L185.712 173.923Z" fill="#FFC938"/>
<path d="M171.366 180.71L186.941 197.562L192.597 185.644L201.308 189.244V183.659" stroke="#444444"/>
</svg>
