<svg width="489" height="647" viewBox="0 0 489 647" fill="none" xmlns="http://www.w3.org/2000/svg">
<path d="M312.419 360.673C312.419 360.673 149.792 162.547 98.695 145.573C47.598 128.599 108.03 292.793 108.03 292.793C108.03 292.793 65.091 276.236 55.163 284.881C45.235 293.526 68.317 327.381 68.317 327.381C68.317 327.381 0.880981 319.058 0.880981 327.381C0.880981 335.704 68.317 360.672 68.317 360.672L312.419 360.673Z" fill="#4ADDC0"/>
<path d="M376.364 190.558L377.964 138.623L346.999 141.056V174.042L354.875 179.885L351.775 190.558H376.364Z" fill="#DCA486"/>
<path d="M377.962 152.074H370.323V144.957C365.885 145.441 361.408 145.441 356.97 144.957C349.896 144.142 342.427 141.313 340.255 138.232C338.083 135.151 348.94 134.223 348.94 134.223C348.94 134.223 348.051 127.634 355.306 128.637C362.561 129.64 377.962 138.237 377.962 138.237V152.074Z" fill="#141414"/>
<path d="M346.997 163.43H371.728C371.728 163.43 371.347 175.395 365.164 178.075C361.86 179.416 358.216 179.68 354.753 178.828C351.831 177.857 349.175 176.219 346.996 174.043L346.997 163.43Z" fill="#845E49"/>
<path d="M229.156 213.977L227.21 203.435L204.246 209.263L229.156 213.977Z" fill="white"/>
<path d="M362.48 345.629C362.48 345.629 358.025 376.629 311.746 372.838C265.467 369.047 221.107 301.499 221.107 301.499L168.835 361.338L132.635 337.298C132.635 337.298 171.223 242.029 228.684 244.111C286.145 246.193 362.48 345.629 362.48 345.629Z" fill="#FEC887"/>
<path d="M169.504 353.93V370.123H90.592L131.462 345.398L169.504 353.93Z" fill="#F05252"/>
<path d="M250.597 209.403L263.71 282.353L218.45 279.941L203.826 209.403H250.597Z" fill="#FD4B64"/>
<path d="M340.046 188.006C340.046 188.006 349.532 202.613 362.846 200.792C376.16 198.971 388.328 188.006 388.328 188.006C388.328 188.006 423.863 192.392 418.433 235.194C416.554 250.003 403.157 276.42 394.484 295.583C378.451 331.006 362.846 353.93 362.846 353.93C362.846 353.93 345.506 339.974 320.174 321.813C294.842 303.652 255.651 290.289 255.651 290.289L258.251 248.104L297.031 244.913C297.031 244.913 312.591 218.055 323.622 204.481C334.653 190.907 340.046 188.006 340.046 188.006Z" fill="#FC3481"/>
<path d="M395.403 193.471C395.403 193.471 389.411 184.557 364.374 184.103C339.337 183.649 339.068 193.471 339.068 193.471L361.582 207.155L395.403 193.471Z" fill="#DCA486" stroke="#707070"/>
<path d="M382.764 229.665L349.855 282.919" stroke="#444444"/>
<path d="M366.31 290.301L271.216 254.142L260.771 274.255" stroke="#444444"/>
<path d="M333.348 216.616L297.398 262.997" stroke="#444444"/>
<path d="M280.47 262.996C280.47 262.996 265.049 248.502 259.909 245.872C254.769 243.242 260.96 253.304 259.909 252.477C258.858 251.65 233.42 240.927 229.786 243.654C226.152 246.381 244.54 255.941 244.54 255.941C244.54 255.941 224.065 251.272 223.84 254.141C223.615 257.01 242.969 262.999 242.969 262.999C242.969 262.999 223.635 261.24 223.84 265.877C224.045 270.514 242.969 268.408 242.969 268.408C242.969 268.408 222.68 273.908 229.782 275.929C236.884 277.95 264.682 283.822 264.682 283.822L280.47 262.996Z" fill="#DCA486"/>
<path d="M459.844 358.163C459.844 358.163 453.668 385.307 453.668 407.038C453.634 419.972 455.72 432.825 459.844 445.084H77.344C77.344 445.084 54.021 447.984 47.15 407.038C40.279 366.092 92.088 358.163 92.088 358.163H459.844Z" fill="white"/>
<path d="M267.744 358.163C267.744 358.163 264.438 385.307 264.438 407.038C264.394 419.793 265.501 432.527 267.744 445.084H63.024C63.024 445.084 50.541 447.984 46.863 407.038C43.185 366.092 70.915 358.163 70.915 358.163H267.744Z" fill="#CBEAF6"/>
<path d="M471.646 452.537L73.3839 451.513C73.3839 451.513 40.309 440.1 36.484 407.505C32.659 374.91 64.5169 356.478 64.5169 356.478L471.65 355.693C472.818 356.101 473.826 356.87 474.528 357.89C475.229 358.909 475.587 360.126 475.55 361.363C475.654 362.621 475.323 363.876 474.613 364.919C473.903 365.963 472.858 366.731 471.65 367.097H67.708C67.708 367.097 46.6319 379.731 46.7559 405.818C46.8799 431.905 76.9199 443.299 76.9199 443.299H471.651C471.651 443.299 474.572 443.77 474.751 447.809C474.93 451.848 471.646 452.537 471.646 452.537Z" fill="#FDB52D"/>
<path d="M70.099 382.106H436.465" stroke="#444444"/>
<path d="M70.099 404.115H331.521" stroke="#444444"/>
<path d="M70.099 426.124H436.465" stroke="#444444"/>
<path d="M459.844 551.852C459.844 551.852 453.668 578.996 453.668 600.727C453.634 613.661 455.72 626.514 459.844 638.773H77.344C77.344 638.773 54.021 641.673 47.15 600.727C40.279 559.781 92.088 551.852 92.088 551.852H459.844Z" fill="white"/>
<path d="M471.646 646.226L73.3839 645.202C73.3839 645.202 40.309 633.789 36.484 601.194C32.659 568.599 64.5169 550.167 64.5169 550.167L471.65 549.382C472.818 549.79 473.826 550.559 474.528 551.579C475.229 552.598 475.587 553.815 475.55 555.052C475.654 556.31 475.323 557.565 474.613 558.608C473.903 559.652 472.858 560.42 471.65 560.786H67.708C67.708 560.786 46.6319 573.42 46.7559 599.507C46.8799 625.594 76.9199 636.988 76.9199 636.988H471.651C471.651 636.988 474.572 637.459 474.751 641.498C474.93 645.537 471.646 646.226 471.646 646.226Z" fill="#FD2D65"/>
<path d="M70.099 575.795H436.465" stroke="#444444"/>
<path d="M70.099 597.804H331.521" stroke="#444444"/>
<path d="M70.099 619.813H436.465" stroke="#444444"/>
<path d="M52.3389 455.007C52.3389 455.007 58.7 482.151 58.7 503.882C58.7306 516.831 56.5802 529.693 52.3389 541.928H446.276C446.276 541.928 470.296 544.828 477.376 503.882C484.456 462.936 431.094 455.007 431.094 455.007H52.3389Z" fill="white"/>
<path d="M265.18 455.007C265.18 455.007 268.361 482.151 268.361 503.882C268.404 516.632 267.339 529.362 265.18 541.928H462.149C462.149 541.928 474.159 544.828 477.698 503.882C481.237 462.936 454.557 455.007 454.557 455.007H265.18Z" fill="#CBEAF6"/>
<path d="M40.1839 549.381L450.36 548.357C450.36 548.357 484.424 536.944 488.367 504.349C492.31 471.754 459.496 453.326 459.496 453.326L40.1839 452.541C38.9974 452.935 37.9677 453.697 37.2451 454.717C36.5224 455.737 36.1448 456.961 36.167 458.211C36.0773 459.482 36.4275 460.746 37.1589 461.79C37.8903 462.834 38.9583 463.595 40.1839 463.945H456.209C456.209 463.945 477.915 476.579 477.788 502.666C477.661 528.753 446.722 540.147 446.722 540.147H40.1839C40.1839 540.147 37.1749 540.618 36.9909 544.657C36.8543 545.699 37.1036 546.754 37.6919 547.624C38.2801 548.495 39.1665 549.119 40.1839 549.381Z" fill="#2DA5FD"/>
<path d="M453.744 478.95H76.417" stroke="#444444"/>
<path d="M453.743 500.959H184.501" stroke="#444444"/>
<path d="M453.744 522.968H76.417" stroke="#444444"/>
<path d="M156.329 402.214C154.026 405.686 152.212 409.458 150.938 413.424C149.024 419.411 147.421 425.493 146.138 431.646L162.67 415.046L166.934 435.861C166.934 435.861 167.843 423.461 172.161 415.046C174.991 409.794 179.141 405.371 184.203 402.214H156.329Z" fill="#FD2D2D"/>
<path d="M317.247 500.959C317.247 500.959 320.102 502.397 322.647 509.759C325.192 517.121 327.431 530.395 327.431 530.395L310.899 513.795L306.635 534.61C306.635 534.61 304.373 522.21 300.056 513.795C297.494 508.774 293.841 504.39 289.366 500.963L317.247 500.959Z" fill="#1A83ED"/>
<path d="M182.223 597.993L172.423 627.593L187.675 609.322L189.875 636.933C189.875 636.933 196.114 617.633 200.375 609.322C204.636 601.011 210.422 597.992 210.422 597.992L182.223 597.993Z" fill="#FD952D"/>
<path d="M355.973 88.3628C355.973 88.3628 381.228 47.7026 352.509 15.2466C323.79 -17.2094 267.446 12.917 267.446 12.917L355.973 88.3628Z" fill="#13E4F5"/>
<path d="M262.218 18.0502L351.465 95.6318L356.766 89.5345L267.518 11.9529L262.218 18.0502Z" fill="#696969"/>
<path d="M349.954 333.657H424.872C430.716 333.657 436.321 335.978 440.454 340.111C444.586 344.243 446.907 349.848 446.907 355.692H327.919C327.919 349.848 330.241 344.243 334.373 340.111C338.506 335.978 344.11 333.657 349.954 333.657Z" fill="#27E4F5"/>
<path d="M366.847 329.985H350.688C349.066 329.985 347.75 331.3 347.75 332.923C347.75 334.545 349.066 335.861 350.688 335.861H366.847C368.47 335.861 369.785 334.545 369.785 332.923C369.785 331.3 368.47 329.985 366.847 329.985Z" fill="#444444"/>
<path d="M400.757 336.778L410.188 338.271L443.84 125.69L434.409 124.197L400.757 336.778Z" fill="#444444"/>
<path d="M432.218 119.725L440.037 114.244L367.944 11.3784L360.124 16.859L432.218 119.725Z" fill="#444444"/>
<path d="M436.624 131.671C442.304 131.671 446.907 127.067 446.907 121.388C446.907 115.709 442.304 111.105 436.624 111.105C430.945 111.105 426.341 115.709 426.341 121.388C426.341 127.067 430.945 131.671 436.624 131.671Z" fill="#F4DA19"/>
<path d="M360.236 21.4967C365.916 21.4967 370.519 16.8929 370.519 11.2137C370.519 5.53458 365.916 0.930725 360.236 0.930725C354.557 0.930725 349.953 5.53458 349.953 11.2137C349.953 16.8929 354.557 21.4967 360.236 21.4967Z" fill="#F4DA19"/>
</svg>
