<svg width="457" height="538" viewBox="0 0 457 538" fill="none" xmlns="http://www.w3.org/2000/svg">
<path d="M308.998 456.433C308.998 456.433 341.103 415.604 343.022 408.984C344.941 402.364 341.469 385.949 345.834 368.028C350.199 350.107 364.555 336.604 364.555 336.604L372.331 338.983V328.816C372.331 328.816 394.781 307.133 406.613 321.891C418.445 336.649 388.782 356.448 382.461 372.501C376.14 388.554 379.241 413.372 379.241 413.372L359.241 421.716H376.388C372.622 428.421 368.208 434.74 363.209 440.584C355.569 449.263 348.545 454.454 347.353 458.959C346.161 463.464 350.927 486.702 347.353 503.259C343.779 519.816 333.059 525.173 333.059 525.173L308.998 456.433Z" fill="#8C5DD1"/>
<path d="M407.734 323.915C407.734 323.915 395.468 326.782 384.206 338.735C372.944 350.688 369.936 352.577 362.191 374.127C354.446 395.677 356.772 415.149 353.227 424.927C349.682 434.705 336.355 448.086 327.227 468.178C318.099 488.27 322.438 512.938 322.438 512.938L332.651 524.505C332.651 524.505 342.389 518.576 346.451 501.283C350.513 483.99 347.719 459.039 347.719 459.039C347.719 459.039 357.543 448.883 364.598 439.756C368.815 434.313 372.607 428.555 375.94 422.53H359.195L378.606 412.613C378.606 412.613 376.606 381.713 384.206 369.394C391.806 357.075 421.149 338.613 407.734 323.915Z" fill="#794FBC"/>
<path d="M342.821 467.546C353.505 450.565 380.021 441.451 380.021 441.451C381.561 434.715 383.807 428.161 386.721 421.896C390.363 414.507 394.517 407.382 399.153 400.573L408.791 409.773V393.873C408.791 393.873 422.272 385.686 433.33 383.262C439.858 381.795 446.66 382.112 453.024 384.179L337.286 509.379C337.286 509.379 332.137 484.527 342.821 467.546Z" fill="#8C5DD1"/>
<path d="M341.967 493.12C341.967 493.12 346.732 485.659 356.898 476.168C367.064 466.677 375.541 464.052 383.727 455.156C391.913 446.26 395.82 429.571 411.957 412.438C428.094 395.305 436.205 389.854 447.178 386.625C458.151 383.396 455.85 399.525 455.85 399.525L442.744 401.481L451.135 407.029C451.135 407.029 431.473 412.386 421.001 423.029C410.529 433.672 409.656 448.601 409.656 448.601L391.781 452.014L403.556 455.164C400.788 460.681 396.753 465.464 391.781 469.122C383.205 475.642 373.188 475.458 369.253 481.241C365.318 487.024 351.86 525.799 351.86 525.799L341.967 493.12Z" fill="#7A4FBA"/>
<path d="M345.472 519.545C345.472 519.545 352.072 506.578 362.772 498.978C373.472 491.378 388.3 489.147 388.3 489.147C388.3 489.147 396.068 469.987 411.6 461.399C427.132 452.811 433.741 453.32 444.407 454.199C455.073 455.078 454.265 464.899 454.265 464.899L355.465 530.272L345.472 519.545Z" fill="#8C5DD1"/>
<path d="M352.151 528.502C355.465 521.784 360.165 515.845 365.94 511.074C375.623 503.028 390.884 496.317 390.884 496.317C390.884 496.317 410.415 476.752 426.29 468.788C442.165 460.824 454.39 464.465 454.39 464.465C454.39 464.465 454.271 470.944 446.867 475.204C439.463 479.464 433.167 476.545 424.767 481.504C419.608 484.691 415.591 489.431 413.295 495.044H401.654L410.307 499.766C410.307 499.766 407.407 506.413 398.129 511.073C388.851 515.733 373.207 518.407 373.207 518.407L364.075 535.081L352.151 528.502Z" fill="#7A4FBA"/>
<path d="M147.054 456.433C147.054 456.433 114.949 415.604 113.03 408.984C111.111 402.364 114.583 385.949 110.218 368.028C105.853 350.107 91.4971 336.604 91.4971 336.604L83.7211 338.983V328.816C83.7211 328.816 61.2711 307.133 49.4391 321.891C37.6071 336.649 67.2702 356.448 73.5912 372.501C79.9122 388.554 76.8112 413.372 76.8112 413.372L96.8112 421.716H79.6642C83.4303 428.421 87.8444 434.74 92.8431 440.584C100.483 449.263 107.507 454.454 108.699 458.959C109.891 463.464 105.125 486.702 108.699 503.259C112.273 519.816 122.993 525.173 122.993 525.173L147.054 456.433Z" fill="#8C5DD1"/>
<path d="M48.3181 323.915C48.3181 323.915 60.5841 326.782 71.8461 338.735C83.1081 350.688 86.1161 352.577 93.8611 374.127C101.606 395.677 99.2801 415.149 102.825 424.927C106.37 434.705 119.697 448.086 128.825 468.178C137.953 488.27 133.614 512.938 133.614 512.938L123.401 524.505C123.401 524.505 113.663 518.576 109.601 501.283C105.539 483.99 108.333 459.039 108.333 459.039C108.333 459.039 98.5091 448.883 91.4541 439.756C87.2371 434.313 83.4452 428.555 80.1121 422.53H96.8591L77.4481 412.613C77.4481 412.613 79.4481 381.713 71.8481 369.394C64.2481 357.075 34.9031 338.613 48.3181 323.915Z" fill="#794FBC"/>
<path d="M113.231 467.546C102.547 450.565 76.0311 441.451 76.0311 441.451C74.4913 434.715 72.2456 428.161 69.3311 421.896C65.6887 414.507 61.5346 407.382 56.8991 400.573L47.2611 409.773V393.873C47.2611 393.873 33.7801 385.686 22.7221 383.262C16.194 381.795 9.39155 382.112 3.02808 384.179L118.766 509.379C118.766 509.379 123.915 484.527 113.231 467.546Z" fill="#8C5DD1"/>
<path d="M114.085 493.12C114.085 493.12 109.32 485.659 99.1541 476.168C88.9881 466.677 80.5111 464.052 72.3251 455.156C64.1391 446.26 60.2321 429.571 44.0951 412.438C27.9581 395.305 19.8471 389.854 8.87411 386.625C-2.09889 383.396 0.202109 399.525 0.202109 399.525L13.3081 401.481L4.91711 407.029C4.91711 407.029 24.5791 412.386 35.0511 423.029C45.5231 433.672 46.3961 448.601 46.3961 448.601L64.2711 452.014L52.4961 455.164C55.2644 460.681 59.2994 465.464 64.2711 469.122C72.8471 475.642 82.8641 475.458 86.7991 481.241C90.7341 487.024 104.192 525.799 104.192 525.799L114.085 493.12Z" fill="#7A4FBA"/>
<path d="M110.58 519.545C110.58 519.545 103.98 506.578 93.2802 498.978C82.5802 491.378 67.7522 489.147 67.7522 489.147C67.7522 489.147 59.9842 469.987 44.4522 461.399C28.9202 452.811 22.3112 453.32 11.6452 454.199C0.979182 455.078 1.78718 464.899 1.78718 464.899L100.587 530.272L110.58 519.545Z" fill="#8C5DD1"/>
<path d="M103.901 528.502C100.587 521.784 95.8875 515.845 90.1121 511.074C80.4291 503.028 65.1681 496.317 65.1681 496.317C65.1681 496.317 45.6371 476.752 29.7621 468.788C13.8871 460.824 1.66211 464.465 1.66211 464.465C1.66211 464.465 1.78109 470.944 9.18509 475.204C16.5891 479.464 22.8851 476.545 31.2851 481.504C36.4446 484.691 40.4611 489.431 42.7571 495.044H54.3981L45.7451 499.766C45.7451 499.766 48.6451 506.413 57.9231 511.073C67.2011 515.733 82.8441 518.407 82.8441 518.407L91.9761 535.081L103.901 528.502Z" fill="#7A4FBA"/>
<path d="M329.717 509.929H128.585L148.732 376.993H309.968L329.717 509.929Z" fill="white"/>
<path d="M149.162 377.493L129.166 509.429H329.137L309.536 377.493H149.162ZM148.302 376.493H310.399L330.297 510.429H128.003L148.302 376.493Z" fill="#707070"/>
<path d="M308.689 376.704H143.459C139.476 376.704 136.247 379.933 136.247 383.916V383.917C136.247 387.9 139.476 391.129 143.459 391.129H308.689C312.672 391.129 315.901 387.9 315.901 383.917V383.916C315.901 379.933 312.672 376.704 308.689 376.704Z" fill="#1FC1C7"/>
<path d="M113.298 515.707H345.405C351.318 515.707 356.988 518.056 361.169 522.236C365.349 526.417 367.698 532.088 367.698 538H91.0051C91.0051 532.088 93.3538 526.417 97.5346 522.236C101.715 518.056 107.386 515.707 113.298 515.707Z" fill="white"/>
<path d="M112.518 516.207H346.186C351.759 516.207 357.104 518.421 361.045 522.362C364.985 526.302 367.199 531.647 367.199 537.22V537.22C367.199 537.294 367.17 537.366 367.117 537.418C367.065 537.471 366.993 537.5 366.919 537.5H91.7851C91.7109 537.5 91.6396 537.471 91.5871 537.418C91.5346 537.366 91.5051 537.294 91.5051 537.22V537.22C91.5051 531.647 93.719 526.302 97.6597 522.362C101.6 518.421 106.945 516.207 112.518 516.207V516.207Z" stroke="#707070"/>
<path d="M133.624 498.659H319.175C325.262 498.659 331.099 501.077 335.402 505.381C339.706 509.684 342.124 515.522 342.124 521.608H110.675C110.675 515.522 113.093 509.684 117.397 505.381C121.7 501.077 127.538 498.659 133.624 498.659V498.659Z" fill="white"/>
<path d="M132.835 499.159H319.967C325.712 499.159 331.221 501.441 335.283 505.503C339.345 509.565 341.627 515.074 341.627 520.819C341.627 520.896 341.597 520.969 341.542 521.023C341.488 521.078 341.415 521.108 341.338 521.108H111.464C111.387 521.108 111.314 521.078 111.26 521.023C111.205 520.969 111.175 520.896 111.175 520.819V520.819C111.175 515.074 113.457 509.565 117.519 505.503C121.581 501.441 127.09 499.159 132.835 499.159V499.159Z" stroke="#707070"/>
<path d="M130.781 490.978L327.21 491.39L329.185 500.426L129.695 499.546L130.781 490.978Z" fill="#D3D3D3"/>
<path d="M111.411 513.985L341.063 513.952L341.963 521.544H110.218L111.411 513.985Z" fill="#D3D3D3"/>
<path d="M258.201 413.422H197.223C195.05 413.422 193.289 415.183 193.289 417.356C193.289 419.529 195.05 421.29 197.223 421.29H258.201C260.374 421.29 262.135 419.529 262.135 417.356C262.135 415.183 260.374 413.422 258.201 413.422Z" fill="#1FC1C7"/>
<path d="M276.231 429.814H179.848C177.494 429.814 175.586 431.722 175.586 434.076C175.586 436.43 177.494 438.338 179.848 438.338H276.231C278.585 438.338 280.493 436.43 280.493 434.076C280.493 431.722 278.585 429.814 276.231 429.814Z" fill="#1FC1C7"/>
<path d="M257.873 446.206H197.551C195.197 446.206 193.289 448.114 193.289 450.468C193.289 452.822 195.197 454.73 197.551 454.73H257.873C260.227 454.73 262.135 452.822 262.135 450.468C262.135 448.114 260.227 446.206 257.873 446.206Z" fill="#1FC1C7"/>
<path d="M71.5332 262.188H170.584C170.584 262.188 171.672 252.901 166.145 248.922C160.618 244.943 148.477 246.27 148.477 246.27C146.819 242.836 144.351 239.856 141.285 237.588C138.218 235.32 134.647 233.832 130.877 233.252C117.758 231.117 108.158 242.489 108.158 242.489C108.158 242.489 101.778 239.8 96.4582 242.489C91.1382 245.178 86.8852 253.246 86.8852 253.246C86.8852 253.246 80.1852 251.011 76.3462 253.246C72.5072 255.481 71.5332 262.188 71.5332 262.188Z" fill="#E8C1FE"/>
<path d="M228.025 199.944H327.076C327.076 199.944 328.164 190.657 322.637 186.678C317.11 182.699 304.969 184.026 304.969 184.026C303.311 180.592 300.843 177.612 297.776 175.344C294.71 173.076 291.139 171.588 287.369 171.008C274.25 168.873 264.65 180.245 264.65 180.245C264.65 180.245 258.27 177.556 252.95 180.245C247.63 182.934 243.377 191.002 243.377 191.002C243.377 191.002 236.677 188.767 232.838 191.002C228.999 193.237 228.025 199.944 228.025 199.944Z" fill="#E8C1FE"/>
<path d="M93.6641 125.936H148.491C148.491 125.936 149.091 120.796 146.034 118.592C142.977 116.388 136.254 117.124 136.254 117.124C135.336 115.223 133.97 113.573 132.273 112.318C130.576 111.063 128.599 110.239 126.512 109.918C119.25 108.737 113.937 115.031 113.937 115.031C113.937 115.031 110.406 113.542 107.462 115.031C104.518 116.52 102.162 120.985 102.162 120.985C102.162 120.985 98.4531 119.748 96.3291 120.985C94.2051 122.222 93.6641 125.936 93.6641 125.936Z" fill="#E8C1FE"/>
<path d="M319.111 101.818C319.111 101.818 331.011 92.3371 336.075 84.2371C341.139 76.1371 341.035 72.2371 339.937 71.3231C338.839 70.4091 334.537 74.7651 334.537 74.7651C334.537 74.7651 339.092 67.0251 336.657 65.0501C334.222 63.0751 329.465 69.4311 329.465 69.4311C329.465 69.4311 331.576 63.2311 328.823 63.0051C326.07 62.7791 318.333 75.1751 318.333 75.1751C318.333 75.1751 320.109 67.8331 317.982 67.6301C315.855 67.4271 309.507 76.1071 308.857 80.2251C308.525 83.5739 308.612 86.9509 309.116 90.2781L319.111 101.818Z" fill="#FC8165"/>
<path d="M316.948 90.0081C316.879 90.008 316.81 89.9923 316.748 89.9621C316.695 89.9367 316.647 89.901 316.607 89.857C316.568 89.813 316.538 89.7616 316.518 89.7057C316.499 89.6498 316.491 89.5907 316.495 89.5317C316.498 89.4727 316.514 89.415 316.54 89.3621C320.803 80.5361 317.966 75.4481 317.94 75.3981C317.91 75.3471 317.891 75.2908 317.883 75.2323C317.875 75.1739 317.879 75.1144 317.894 75.0574C317.909 75.0003 317.935 74.9468 317.97 74.8998C318.006 74.8528 318.051 74.8133 318.102 74.7836C318.153 74.7538 318.209 74.7344 318.267 74.7264C318.326 74.7184 318.385 74.722 318.442 74.737C318.499 74.752 318.553 74.7781 318.6 74.8138C318.647 74.8495 318.686 74.8941 318.716 74.9451C318.844 75.1641 321.84 80.4591 317.349 89.7511C317.313 89.8274 317.257 89.8921 317.186 89.9376C317.115 89.9831 317.032 90.0075 316.948 90.0081Z" fill="black"/>
<path d="M330.715 84.788C330.655 84.7876 330.595 84.7752 330.54 84.7515C330.484 84.7278 330.434 84.6933 330.392 84.65L320.319 74.15C320.244 74.0629 320.205 73.9502 320.21 73.8352C320.216 73.7202 320.265 73.6118 320.349 73.5322C320.432 73.4526 320.542 73.408 320.657 73.4076C320.773 73.4072 320.883 73.451 320.967 73.53L331.04 84.03C331.101 84.0936 331.142 84.1737 331.158 84.2604C331.174 84.3471 331.164 84.4366 331.129 84.5176C331.094 84.5986 331.037 84.6677 330.963 84.7161C330.889 84.7646 330.803 84.7903 330.715 84.79V84.788Z" fill="black"/>
<path d="M255.056 115.963C255.056 115.963 275.049 114.09 286.209 103.781C293.409 97.1271 306.276 81.2941 306.276 81.2941L329.786 98.7391C329.786 98.7391 319.896 134.423 292.422 147.724C264.948 161.025 242.635 152.379 242.635 152.379L255.056 115.963Z" fill="#ADA4F7"/>
<path d="M193.634 71.56C193.634 71.56 190.734 83.36 186.809 85.647C182.884 87.934 168.745 84.015 168.745 84.015L176.871 57.53L193.634 71.56Z" fill="#FC8165"/>
<path d="M234.427 336.125L233.968 361.83L207.856 352.156L205.928 331.907L234.427 336.125Z" fill="#FC8165"/>
<path d="M200.4 349.655C200.4 349.655 202.072 341.255 206.413 340.861C210.754 340.467 216.975 349.655 216.975 349.655C216.975 349.655 233.937 348.455 235.136 349.655C236.335 350.855 236.336 377.235 235.136 377.636C233.936 378.037 163.586 378.036 160.388 377.636C157.19 377.236 161.765 363.644 168.071 361.246C172.282 359.753 176.704 358.941 181.171 358.84L200.4 349.655Z" fill="#80BAFF"/>
<path d="M297.675 301.52L317.481 317.912L293.632 332.29L276.602 321.167L297.675 301.52Z" fill="#FC8165"/>
<path d="M288.033 337.365C288.033 337.365 282.513 330.823 284.909 327.18C287.305 323.537 298.372 324.409 298.372 324.409C298.372 324.409 308.014 310.402 309.7 310.209C311.386 310.016 332 326.475 331.57 327.662C331.14 328.849 287.253 383.838 284.947 386.088C282.641 388.338 274.87 376.288 276.929 369.86C278.388 365.638 280.511 361.675 283.218 358.121L288.033 337.365Z" fill="#80BAFF"/>
<path d="M226.55 128.583C226.55 128.583 213.259 120.409 214.901 115.677C216.543 110.945 226.574 105.247 236.891 105.247C247.208 105.247 258.604 110.402 258.875 115.558C259.146 120.714 226.55 128.583 226.55 128.583Z" fill="#FFAF45"/>
<path d="M242.617 339.566L193.117 340.224C193.117 340.224 177.037 290.746 181.705 260.281C184.578 241.447 192.219 217.247 197.646 201.506C200.998 191.79 203.492 185.306 203.492 185.306L231.323 187.481L239.223 188.099C239.223 188.099 237.886 198.813 236.31 212.899C233.856 235.124 230.844 265.569 231.622 275.624C233.32 290.526 242.617 339.566 242.617 339.566Z" fill="#7E48D3"/>
<path d="M261.02 184.432C261.02 184.432 270.327 224.19 288.939 257.464C307.551 290.738 316.439 300.245 316.439 300.245L277.571 333.704C277.571 333.704 233.099 284.256 227.6 250.549C224.243 229.394 222.546 208.01 222.523 186.59L261.02 184.432Z" fill="#8758E7"/>
<path d="M257.758 203.853C250.095 203.853 246.564 196.053 246.524 195.962C246.479 195.854 246.479 195.732 246.523 195.623C246.567 195.514 246.651 195.427 246.759 195.38C246.866 195.333 246.988 195.329 247.098 195.371C247.207 195.412 247.297 195.495 247.346 195.601C247.518 195.988 251.663 205.074 260.925 202.501C261.04 202.469 261.163 202.484 261.267 202.543C261.371 202.601 261.447 202.699 261.479 202.814C261.511 202.928 261.496 203.051 261.437 203.155C261.379 203.259 261.281 203.335 261.166 203.367C260.057 203.683 258.911 203.846 257.758 203.853Z" fill="#50447E"/>
<path d="M278.011 255.441C277.667 255.441 277.331 255.329 277.057 255.12C276.738 254.933 276.479 254.657 276.314 254.326C276.148 253.995 276.083 253.623 276.125 253.255C276.51 250.813 282.585 248.674 283.277 248.439C283.362 248.411 283.453 248.408 283.539 248.432C283.626 248.456 283.703 248.505 283.761 248.573C283.819 248.64 283.856 248.724 283.866 248.813C283.877 248.902 283.861 248.991 283.82 249.071C283.513 249.662 280.749 254.861 278.42 255.393C278.286 255.425 278.149 255.441 278.011 255.441ZM282.44 249.702C280.098 250.634 277.205 252.16 277.011 253.391C276.993 253.519 276.929 253.904 277.594 254.398C277.681 254.464 277.783 254.509 277.89 254.53C277.998 254.55 278.109 254.546 278.214 254.516C279.55 254.212 281.385 251.509 282.44 249.702Z" fill="#50447E"/>
<path d="M271.386 325.815C271.293 325.816 271.201 325.788 271.124 325.734C271.048 325.681 270.99 325.605 270.958 325.517C270.927 325.429 270.924 325.333 270.949 325.243C270.975 325.153 271.028 325.073 271.101 325.015L309.989 292.86C310.081 292.784 310.199 292.748 310.318 292.759C310.436 292.77 310.546 292.828 310.622 292.92C310.698 293.011 310.734 293.13 310.723 293.248C310.712 293.367 310.654 293.476 310.562 293.552L271.674 325.707C271.593 325.775 271.492 325.813 271.386 325.815Z" fill="#50447E"/>
<path d="M236.333 212.958C236.313 212.958 197.648 201.506 197.648 201.506C201 191.79 203.494 185.306 203.494 185.306L231.325 187.481L236.313 212.898L236.333 212.958Z" fill="#8758E7"/>
<path d="M230.989 264.839C230.904 264.839 230.82 264.814 230.748 264.768C230.676 264.722 230.618 264.656 230.582 264.578C224.682 251.811 222.877 213.632 222.693 209.396L205.807 204.696C205.693 204.664 205.595 204.588 205.537 204.484C205.479 204.381 205.464 204.258 205.496 204.144C205.528 204.029 205.604 203.932 205.708 203.873C205.811 203.815 205.934 203.8 206.048 203.832L223.248 208.622C223.339 208.648 223.42 208.701 223.479 208.775C223.538 208.85 223.571 208.94 223.575 209.035C223.593 209.456 225.353 251.135 231.396 264.203C231.421 264.256 231.436 264.314 231.438 264.373C231.441 264.432 231.432 264.49 231.412 264.546C231.392 264.601 231.361 264.652 231.321 264.695C231.281 264.738 231.233 264.773 231.179 264.798C231.12 264.826 231.055 264.84 230.989 264.839Z" fill="#50447E"/>
<path d="M190.528 330.833C190.469 330.834 190.41 330.823 190.356 330.8C190.301 330.778 190.251 330.746 190.209 330.704C190.124 330.62 190.075 330.506 190.074 330.387C190.073 330.268 190.12 330.153 190.203 330.068C190.287 329.983 190.401 329.934 190.52 329.933L239.91 328.983C240.03 328.981 240.145 329.026 240.231 329.109C240.317 329.192 240.366 329.306 240.368 329.425C240.37 329.544 240.325 329.66 240.242 329.746C240.159 329.832 240.046 329.881 239.926 329.883L190.536 330.831L190.528 330.833Z" fill="#50447E"/>
<path d="M192.544 79.8451C192.544 79.8451 187.534 98.9621 197.651 107.692C207.768 116.422 221.651 114.878 224.974 114.601C228.297 114.324 237.727 113.492 244.24 114.739C250.753 115.986 255.452 111.992 262.621 116.914C267.148 120.022 262.234 186.614 262.234 186.614C251.318 188.733 240.22 189.774 229.1 189.722C212.086 189.445 201.737 187.422 201.737 187.422C201.737 187.422 200.859 183.234 200.719 173.313C200.776 165.553 201.239 157.8 202.106 150.088C202.106 150.088 169.674 148.701 161.636 127.081C153.598 105.461 164.824 78.7601 164.824 78.7601L192.544 79.8451Z" fill="#ADA4F7"/>
<path d="M243.716 101.339L242.547 117.531C242.547 117.531 240.053 121.898 233.003 121.743C227.752 121.625 226.036 119.788 226.036 119.788L227.355 111.688L228.648 103.788L241.548 101.699L243.716 101.339Z" fill="#FC8165"/>
<path d="M241.552 104.228C241.458 104.623 241.302 105 241.091 105.347C237.831 111.059 230.391 111.632 227.355 111.606L228.648 103.781L241.552 104.228Z" fill="black"/>
<path d="M229.673 79.0911C229.673 79.0911 222.76 92.9391 224.24 101.191C225.72 109.443 232.633 108.782 236.831 107.583C239.234 106.948 241.414 105.657 243.125 103.854C244.266 104.327 245.533 104.401 246.721 104.063C247.909 103.724 248.947 102.994 249.667 101.991C252.506 98.3911 251.267 93.8671 249.174 92.6701C247.081 91.4731 244.36 92.9351 244.36 92.9351L246.704 88.9411C246.704 88.9411 239.794 66.9721 229.673 79.0911Z" fill="#FC8165"/>
<path d="M244.233 99.187C244.136 99.1869 244.041 99.1551 243.963 99.0963C243.885 99.0375 243.829 98.9551 243.802 98.8613C243.775 98.7676 243.78 98.6677 243.815 98.5767C243.85 98.4857 243.913 98.4086 243.996 98.357L249.143 95.133C249.244 95.0719 249.365 95.053 249.48 95.0804C249.595 95.1078 249.694 95.1794 249.757 95.2796C249.819 95.3798 249.84 95.5006 249.814 95.6158C249.788 95.731 249.717 95.8313 249.618 95.895L244.471 99.116C244.4 99.1617 244.318 99.1863 244.233 99.187Z" fill="black"/>
<path d="M248.622 99.587C248.566 99.5873 248.51 99.5764 248.458 99.555L245.368 98.34C245.313 98.3186 245.263 98.2865 245.22 98.2455C245.178 98.2046 245.143 98.1555 245.12 98.1013C245.096 98.0471 245.084 97.9888 245.083 97.9297C245.082 97.8706 245.093 97.8119 245.115 97.757C245.16 97.6473 245.245 97.5593 245.354 97.512C245.463 97.4647 245.585 97.4619 245.696 97.504L248.785 98.719C248.882 98.7577 248.963 98.8289 249.013 98.9204C249.063 99.0119 249.08 99.118 249.061 99.2206C249.041 99.3232 248.987 99.4158 248.907 99.4827C248.826 99.5495 248.726 99.5864 248.621 99.587H248.622Z" fill="black"/>
<path d="M238.107 86.0981C238.028 86.0984 237.951 86.0777 237.882 86.0382C237.814 85.9986 237.757 85.9417 237.718 85.8731C237.483 85.314 237.037 84.8696 236.477 84.6357C235.918 84.4017 235.288 84.3968 234.725 84.6221C234.616 84.6689 234.493 84.6711 234.382 84.6283C234.271 84.5855 234.181 84.5011 234.132 84.3931C234.108 84.3395 234.095 84.2817 234.093 84.223C234.091 84.1642 234.101 84.1057 234.122 84.0508C234.143 83.9959 234.174 83.9456 234.215 83.903C234.255 83.8603 234.303 83.826 234.357 83.8021C235.123 83.4915 235.979 83.4866 236.748 83.7884C237.518 84.0902 238.142 84.6756 238.493 85.4241C238.552 85.5268 238.569 85.6488 238.538 85.7635C238.508 85.8782 238.433 85.9762 238.331 86.0361C238.263 86.0764 238.186 86.0978 238.107 86.0981Z" fill="black"/>
<path d="M227.798 84.4621C227.703 84.4621 227.611 84.432 227.534 84.3761C227.458 84.3202 227.401 84.2415 227.372 84.1512C227.343 84.061 227.343 83.9638 227.373 83.8738C227.403 83.7837 227.46 83.7054 227.537 83.6501C228.031 83.2838 228.63 83.087 229.244 83.0891C229.859 83.0913 230.456 83.2923 230.947 83.6621C231.029 83.7395 231.078 83.8445 231.086 83.9565C231.094 84.0685 231.059 84.1794 230.989 84.2673C230.919 84.3551 230.819 84.4136 230.708 84.4312C230.597 84.4487 230.484 84.4241 230.39 84.3621C230.052 84.1152 229.643 83.983 229.225 83.9848C228.806 83.9866 228.398 84.1223 228.062 84.3721C227.986 84.4296 227.894 84.4611 227.798 84.4621Z" fill="black"/>
<path d="M237.269 91.0921C237.192 91.0924 237.116 91.0728 237.049 91.0352C236.981 90.9975 236.924 90.9431 236.884 90.8771C236.523 90.3235 235.988 89.9061 235.363 89.6911C234.607 89.4721 234.12 90.3831 234.1 90.4231C234.046 90.5274 233.952 90.6062 233.84 90.6426C233.729 90.6789 233.607 90.67 233.501 90.6177C233.396 90.5654 233.315 90.4738 233.277 90.3627C233.238 90.2515 233.244 90.1296 233.294 90.0231C233.485 89.5889 233.818 89.233 234.239 89.0147C234.66 88.7964 235.143 88.7288 235.608 88.8231C236.453 89.0985 237.177 89.6583 237.655 90.4071C237.716 90.5088 237.735 90.6305 237.706 90.7455C237.678 90.8606 237.605 90.9597 237.503 91.0211C237.433 91.0663 237.352 91.0909 237.269 91.0921Z" fill="black"/>
<path d="M228.517 90.0173C228.426 90.0172 228.337 89.9893 228.261 89.9373C228.186 89.8853 228.129 89.8117 228.096 89.7263C227.938 89.2791 227.617 88.9084 227.196 88.6893C226.865 88.5813 226.296 89.1403 226.067 89.4653C225.997 89.5583 225.893 89.6203 225.778 89.6383C225.663 89.6564 225.545 89.629 225.45 89.562C225.354 89.495 225.289 89.3935 225.266 89.2791C225.244 89.1646 225.268 89.046 225.331 88.9483C225.437 88.7963 226.406 87.4763 227.476 87.8373C227.814 87.9874 228.117 88.2045 228.368 88.4755C228.619 88.7464 228.812 89.0654 228.936 89.4133C228.977 89.525 228.972 89.6484 228.923 89.7565C228.873 89.8646 228.783 89.9487 228.671 89.9903C228.622 90.0088 228.57 90.018 228.517 90.0173Z" fill="black"/>
<path d="M232.953 101.785C232.438 101.78 231.929 101.676 231.453 101.478C231.379 101.445 231.316 101.393 231.269 101.327C231.222 101.261 231.194 101.184 231.188 101.104C231.181 101.023 231.197 100.942 231.233 100.87C231.268 100.797 231.323 100.736 231.391 100.692L234.991 98.362C235.062 98.3164 235.144 98.2916 235.229 98.2906C235.313 98.2895 235.396 98.3123 235.468 98.3562C235.54 98.4002 235.598 98.4635 235.636 98.539C235.674 98.6145 235.689 98.6991 235.681 98.783C235.682 99.3082 235.555 99.8256 235.311 100.291C235.067 100.756 234.714 101.154 234.281 101.452C233.876 101.679 233.417 101.794 232.953 101.785ZM232.753 100.879C233.127 100.925 233.505 100.853 233.836 100.674C234.19 100.447 234.452 100.102 234.574 99.7L232.753 100.879Z" fill="black"/>
<path d="M229.232 97.5751C229.127 97.5749 229.025 97.5379 228.945 97.4705C228.864 97.403 228.81 97.3095 228.791 97.2061C228.516 95.8341 228.531 94.4195 228.837 93.0538C229.142 91.6882 229.731 90.4019 230.565 89.2781C230.603 89.2328 230.649 89.1955 230.702 89.1683C230.754 89.1411 230.811 89.1246 230.87 89.1198C230.929 89.1149 230.988 89.1219 231.044 89.1401C231.1 89.1584 231.152 89.1876 231.197 89.2261C231.288 89.303 231.344 89.4126 231.354 89.531C231.365 89.6494 231.327 89.767 231.251 89.8581C230.511 90.8854 229.989 92.0537 229.718 93.2907C229.447 94.5278 229.432 95.8073 229.675 97.0501C229.696 97.1673 229.669 97.2877 229.601 97.3853C229.533 97.4829 229.429 97.5497 229.312 97.5711C229.286 97.5744 229.259 97.5757 229.232 97.5751Z" fill="black"/>
<path d="M215.361 114.69C215.361 114.69 213.891 120.127 219.692 123.542C223.834 125.809 228.264 127.505 232.861 128.584C232.861 128.584 245.085 125.584 252.904 121.747C258.883 118.816 260.523 115.63 257.953 113.128C255.383 110.626 246.415 110.628 246.415 110.628C243.378 111.594 240.433 112.829 237.615 114.319C236.086 115.285 234.498 116.154 232.859 116.919C232.859 116.919 227.959 113.31 224.2 112.496C220.441 111.682 219.693 112.849 219.693 112.849L215.361 114.69Z" fill="#FFAF45"/>
<path d="M224.37 138.797C224.323 138.796 224.275 138.789 224.23 138.775C224.117 138.738 224.023 138.657 223.969 138.551C223.916 138.445 223.906 138.321 223.943 138.208L226.762 129.492C226.778 129.434 226.806 129.379 226.844 129.332C226.881 129.284 226.928 129.245 226.982 129.216C227.035 129.188 227.093 129.17 227.154 129.164C227.214 129.159 227.275 129.165 227.333 129.184C227.39 129.203 227.444 129.233 227.489 129.272C227.535 129.312 227.572 129.361 227.599 129.415C227.625 129.469 227.64 129.529 227.643 129.589C227.646 129.65 227.637 129.71 227.616 129.767L224.797 138.485C224.768 138.575 224.711 138.654 224.634 138.71C224.557 138.766 224.465 138.796 224.37 138.797Z" fill="white"/>
<path d="M243.716 139.351C243.615 139.351 243.516 139.317 243.437 139.254C243.357 139.191 243.302 139.103 243.279 139.004L241.115 129.733C241.098 129.674 241.093 129.613 241.101 129.552C241.109 129.492 241.129 129.433 241.16 129.381C241.191 129.328 241.232 129.282 241.281 129.246C241.331 129.21 241.387 129.184 241.446 129.171C241.506 129.157 241.567 129.156 241.628 129.167C241.688 129.178 241.745 129.201 241.796 129.235C241.846 129.269 241.89 129.313 241.923 129.364C241.956 129.415 241.979 129.473 241.989 129.533L244.154 138.806C244.181 138.922 244.161 139.044 244.098 139.145C244.035 139.246 243.935 139.318 243.819 139.345C243.785 139.351 243.75 139.353 243.716 139.351Z" fill="white"/>
<path d="M185.546 112.271C185.453 112.271 185.36 112.265 185.267 112.253C185.035 112.226 184.812 112.146 184.616 112.018C184.42 111.89 184.257 111.717 184.14 111.515C184.02 111.317 183.949 111.093 183.933 110.862C183.918 110.631 183.959 110.4 184.052 110.188C185.141 107.541 194.243 105.083 195.278 104.811C195.374 104.786 195.477 104.793 195.568 104.832C195.66 104.871 195.736 104.94 195.784 105.027C195.833 105.114 195.851 105.215 195.836 105.313C195.821 105.412 195.773 105.502 195.701 105.571C194.966 106.271 188.576 112.271 185.546 112.271ZM193.676 106.202C190.44 107.186 185.52 108.977 184.882 110.529C184.842 110.613 184.824 110.705 184.829 110.798C184.834 110.891 184.862 110.981 184.91 111.06C184.96 111.145 185.03 111.217 185.115 111.27C185.199 111.322 185.294 111.353 185.393 111.36C187.12 111.605 191.166 108.409 193.676 106.202Z" fill="white"/>
<path d="M244.359 92.937L242.143 94.653L244.232 89.568C242.487 89.1218 240.952 88.0811 239.891 86.625C238.615 85.0326 237.63 83.228 236.98 81.294L229.672 79.094C229.672 79.094 224.002 68.486 230.666 67.961C237.33 67.436 247.366 77.519 249.38 81.308C249.969 82.3664 250.278 83.5575 250.278 84.7685C250.278 85.9796 249.969 87.1706 249.38 88.229C249.38 88.229 251.854 88.399 252.297 90.282C252.74 92.165 250.797 94.657 250.797 94.657C250.057 93.709 249.028 93.0281 247.866 92.7177C246.705 92.4073 245.473 92.4843 244.359 92.937Z" fill="black"/>
<path d="M191.41 87.94H174.689C174.57 87.94 174.455 87.8926 174.371 87.8082C174.287 87.7238 174.239 87.6094 174.239 87.49C174.239 87.3707 174.287 87.2562 174.371 87.1718C174.455 87.0874 174.57 87.04 174.689 87.04H191.41C191.53 87.04 191.644 87.0874 191.728 87.1718C191.813 87.2562 191.86 87.3707 191.86 87.49C191.86 87.6094 191.813 87.7238 191.728 87.8082C191.644 87.8926 191.53 87.94 191.41 87.94Z" fill="white"/>
<path d="M185.173 87.9401C185.114 87.9399 185.056 87.9282 185.002 87.9056C184.947 87.8829 184.898 87.8498 184.857 87.8081C184.815 87.7664 184.782 87.717 184.76 87.6626C184.737 87.6082 184.726 87.5499 184.726 87.4911V79.5571C184.726 79.4377 184.773 79.3232 184.858 79.2389C184.942 79.1545 185.057 79.1071 185.176 79.1071C185.295 79.1071 185.41 79.1545 185.494 79.2389C185.579 79.3232 185.626 79.4377 185.626 79.5571V87.4931C185.626 87.5522 185.614 87.6106 185.591 87.665C185.568 87.7195 185.534 87.7689 185.492 87.8104C185.45 87.8519 185.4 87.8847 185.346 87.907C185.291 87.9292 185.232 87.9405 185.173 87.9401Z" fill="white"/>
<path d="M214.51 65.7571C210.362 65.7456 206.219 65.4979 202.099 65.0151C201.439 64.9356 200.839 64.5973 200.428 64.0746C200.018 63.5519 199.833 62.8877 199.912 62.2281C199.992 61.5686 200.33 60.9676 200.853 60.5574C201.375 60.1473 202.039 59.9616 202.699 60.0411C214.28 61.4301 231.599 60.9551 233.862 55.5501C236.338 49.6231 224.395 43.0501 220.018 41.2131C219.715 41.0864 219.439 40.901 219.207 40.6677C218.975 40.4344 218.791 40.1577 218.666 39.8534C218.541 39.5491 218.478 39.2232 218.479 38.8942C218.48 38.5652 218.545 38.2397 218.672 37.9361C218.799 37.6326 218.984 37.357 219.218 37.1251C219.451 36.8931 219.728 36.7094 220.032 36.5845C220.336 36.4595 220.662 36.3956 220.991 36.3966C221.32 36.3976 221.646 36.4634 221.949 36.5901C222.827 36.9571 243.4 45.7081 238.482 57.4811C235.638 64.2881 224.028 65.7571 214.51 65.7571Z" fill="#FFA131"/>
<path d="M180.114 65.503C174.893 61.3954 171.518 55.3823 170.731 48.7863C169.943 42.1902 171.807 35.5514 175.914 30.33L192.351 9.43503C192.765 8.90852 193.279 8.46873 193.863 8.14076C194.447 7.81279 195.09 7.60308 195.755 7.52359C196.42 7.4441 197.094 7.4964 197.739 7.67749C198.384 7.85858 198.987 8.16493 199.513 8.57903L230.868 33.242C231.395 33.6561 231.835 34.1699 232.163 34.7541C232.491 35.3382 232.701 35.9814 232.781 36.6467C232.86 37.312 232.808 37.9864 232.626 38.6315C232.445 39.2765 232.139 39.8795 231.724 40.406L215.287 61.306C211.179 66.5262 205.166 69.901 198.57 70.6881C191.974 71.4751 185.335 69.6101 180.114 65.503Z" fill="#FFA131"/>
<path d="M191.047 59.2532L183.609 53.405L165.034 77.0298L172.472 82.878L191.047 59.2532Z" fill="#FFA131"/>
<path d="M162.041 66.8909L183.021 83.394C184.126 84.2631 184.84 85.5354 185.007 86.9312C185.173 88.3269 184.779 89.7317 183.91 90.8365L179.616 96.2951L150.305 73.2384L154.598 67.7798C155.468 66.675 156.74 65.9607 158.136 65.794C159.531 65.6273 160.936 66.0218 162.041 66.8909V66.8909Z" fill="#FFA131"/>
<path d="M177.775 63.6751C172.554 59.5678 169.178 53.5547 168.391 46.9585C167.603 40.3623 169.468 33.7233 173.575 28.5021L190.012 7.60214C190.426 7.07535 190.94 6.6353 191.524 6.30716C192.108 5.97902 192.751 5.7692 193.417 5.68971C194.082 5.61021 194.757 5.6626 195.402 5.84386C196.047 6.02513 196.65 6.33173 197.176 6.74614L228.526 31.4131C229.053 31.8273 229.493 32.3412 229.821 32.9255C230.149 33.5097 230.358 34.1529 230.437 34.8182C230.517 35.4835 230.464 36.1579 230.283 36.8029C230.101 37.4478 229.795 38.0508 229.38 38.5771L212.943 59.4771C208.836 64.6967 202.823 68.0712 196.228 68.8585C189.633 69.6457 182.996 67.7813 177.775 63.6751Z" fill="#FFAF45"/>
<path d="M188.707 57.4247L181.27 51.5771L162.695 75.2019L170.132 81.0495L188.707 57.4247Z" fill="#FFAF45"/>
<path d="M159.702 65.0629L180.681 81.5654C181.786 82.4345 182.5 83.7068 182.667 85.1025C182.834 86.4983 182.439 87.9031 181.57 89.0079L177.276 94.4665L147.966 71.4104L152.259 65.9518C153.128 64.847 154.401 64.1327 155.796 63.966C157.192 63.7993 158.597 64.1938 159.702 65.0629V65.0629Z" fill="#FFAF45"/>
<path d="M171.943 41.0821C171.433 41.0821 170.935 40.926 170.516 40.6346C170.096 40.3432 169.777 39.9306 169.599 39.4521C167.734 34.4661 158.919 9.24409 168.352 2.32009C178.631 -5.21691 191.982 12.7021 192.546 13.4691C192.94 14.0046 193.104 14.6744 193.004 15.3312C192.903 15.9881 192.546 16.5781 192.011 16.9716C191.475 17.365 190.805 17.5297 190.148 17.4292C189.492 17.3288 188.902 16.9716 188.508 16.4361C185.695 12.6131 176.484 2.56409 171.316 6.35909C166.594 9.82609 170.211 26.7751 174.289 37.7001C174.431 38.0791 174.478 38.4867 174.428 38.8882C174.378 39.2896 174.231 39.6729 174.001 40.0054C173.77 40.3379 173.463 40.6097 173.104 40.7975C172.746 40.9853 172.348 41.0837 171.943 41.0841V41.0821Z" fill="#FFAF45"/>
<path d="M213.485 26.3781C213.384 26.3777 213.286 26.3424 213.208 26.2781L194.835 11.8281C194.783 11.7942 194.738 11.7497 194.704 11.6975C194.67 11.6454 194.647 11.5866 194.637 11.5251C194.627 11.4636 194.629 11.4006 194.645 11.3402C194.661 11.2798 194.689 11.2234 194.727 11.1744C194.766 11.1255 194.814 11.0852 194.87 11.056C194.925 11.0269 194.985 11.0096 195.048 11.0052C195.11 11.0009 195.172 11.0096 195.231 11.0307C195.289 11.0519 195.343 11.085 195.388 11.1281L213.761 25.5801C213.834 25.6379 213.886 25.7167 213.912 25.8056C213.938 25.8946 213.936 25.9894 213.906 26.0771C213.876 26.1647 213.819 26.2409 213.744 26.2951C213.669 26.3494 213.579 26.3791 213.486 26.3801L213.485 26.3781Z" fill="white"/>
<path d="M163.231 71.358C163.131 71.3575 163.033 71.3222 162.956 71.258C158.922 68.086 156.065 69.981 155.949 70.065C155.851 70.1316 155.73 70.157 155.613 70.1357C155.496 70.1144 155.392 70.0481 155.323 69.951C155.256 69.8538 155.23 69.7339 155.25 69.6174C155.271 69.501 155.337 69.3973 155.433 69.329C155.577 69.229 158.933 66.951 163.509 70.554C163.582 70.6119 163.635 70.6909 163.66 70.7801C163.686 70.8692 163.684 70.9642 163.653 71.052C163.623 71.1397 163.566 71.2158 163.491 71.2699C163.415 71.324 163.325 71.3534 163.232 71.354L163.231 71.358Z" fill="white"/>
<path d="M179.66 66.722C179.66 66.722 183.441 69.26 184.143 65.553C185.035 60.845 172.855 55.017 171.083 55.334C168.627 55.777 169.718 59.282 169.718 59.282C169.718 59.282 165.937 58.071 165.249 60.764C165.057 61.5327 165.102 62.3415 165.378 63.0841C165.654 63.8267 166.149 64.4682 166.797 64.924C166.797 64.924 163.138 64.978 162.719 66.983C161.957 70.622 172.87 77.798 176.419 77.158C181.207 76.296 176.87 73.096 176.87 73.096C176.87 73.096 181.363 75.518 182.813 72.35C183.798 70.2 179.66 66.722 179.66 66.722Z" fill="#FC8165"/>
<path d="M179.66 67.1711C179.563 67.1716 179.469 67.1407 179.391 67.0831L169.454 59.6451C169.362 59.5726 169.301 59.4668 169.286 59.3504C169.271 59.2339 169.302 59.1161 169.372 59.0222C169.443 58.9283 169.547 58.8657 169.663 58.848C169.779 58.8302 169.898 58.8586 169.993 58.9271L179.932 66.3671C180.007 66.4235 180.063 66.5021 180.091 66.5918C180.119 66.6815 180.118 66.7777 180.089 66.867C180.059 66.9562 180.003 67.0339 179.927 67.0892C179.851 67.1445 179.759 67.1745 179.665 67.1751L179.66 67.1711Z" fill="black"/>
<path d="M176.872 73.5461C176.77 73.5462 176.67 73.5108 176.591 73.4461L166.516 65.2761C166.423 65.2012 166.364 65.0925 166.351 64.9738C166.339 64.8552 166.374 64.7364 166.449 64.6436C166.524 64.5508 166.632 64.4915 166.751 64.4789C166.87 64.4662 166.988 64.5012 167.081 64.5761L177.156 72.7461C177.229 72.8046 177.281 72.8841 177.306 72.9737C177.332 73.0632 177.329 73.1584 177.298 73.2462C177.267 73.3339 177.209 73.4099 177.133 73.4636C177.057 73.5173 176.966 73.5461 176.873 73.5461H176.872Z" fill="black"/>
<path d="M186.079 70.6661C186.079 70.6661 183.21 54.8351 187.686 57.8741C192.162 60.9131 193.635 71.5581 193.635 71.5581L188.881 72.8391L186.079 70.6661Z" fill="#FC8165"/>
<path d="M181.188 79.2061C181.125 79.2043 181.063 79.1894 181.005 79.1623C180.948 79.1352 180.897 79.0965 180.855 79.0487C180.814 79.0008 180.782 78.9449 180.763 78.8844C180.744 78.8239 180.738 78.7601 180.745 78.6971C181.565 72.5621 185.695 70.3601 185.87 70.2701C185.976 70.2154 186.1 70.205 186.214 70.2413C186.327 70.2776 186.422 70.3575 186.477 70.4636C186.531 70.5697 186.542 70.6932 186.506 70.807C186.469 70.9207 186.389 71.0154 186.283 71.0701C186.243 71.0901 182.389 73.1701 181.632 78.8191C181.617 78.9264 181.564 79.0247 181.483 79.0958C181.401 79.167 181.296 79.2062 181.188 79.2061Z" fill="black"/>
<path d="M287.157 115.982C286.976 115.983 286.797 115.949 286.628 115.882C284.194 114.95 283.095 107.018 282.979 106.116C282.968 106.027 282.984 105.937 283.025 105.857C283.066 105.777 283.13 105.712 283.209 105.669C283.287 105.626 283.377 105.607 283.466 105.616C283.555 105.624 283.64 105.659 283.709 105.716C283.934 105.904 289.209 110.323 289.237 113.516C289.249 113.89 289.175 114.261 289.02 114.602C288.866 114.943 288.636 115.243 288.347 115.481C288.025 115.788 287.602 115.966 287.157 115.982ZM284.049 107.21C284.574 110.384 285.663 114.55 286.949 115.045C287.103 115.103 287.362 115.145 287.763 114.8C287.952 114.647 288.102 114.452 288.203 114.231C288.303 114.01 288.351 113.768 288.342 113.525C288.326 111.609 285.75 108.798 284.049 107.21Z" fill="white"/>
<path d="M229.214 183.013C219.743 183.031 210.284 182.345 200.914 180.96C200.856 180.95 200.8 180.929 200.75 180.898C200.7 180.867 200.657 180.826 200.623 180.778C200.588 180.73 200.564 180.676 200.551 180.618C200.537 180.561 200.535 180.501 200.545 180.443C200.553 180.384 200.572 180.327 200.603 180.276C200.633 180.225 200.674 180.18 200.723 180.146C200.772 180.111 200.827 180.087 200.885 180.075C200.944 180.063 201.004 180.064 201.062 180.076C201.395 180.13 234.681 185.614 262.65 178.368C262.707 178.353 262.767 178.35 262.825 178.358C262.884 178.366 262.94 178.386 262.991 178.416C263.042 178.446 263.086 178.486 263.122 178.533C263.157 178.58 263.183 178.633 263.198 178.691C263.212 178.748 263.216 178.807 263.208 178.866C263.199 178.924 263.18 178.98 263.15 179.031C263.12 179.082 263.08 179.126 263.033 179.162C262.986 179.197 262.932 179.223 262.875 179.238C251.691 182.135 239.669 183.013 229.214 183.013Z" fill="white"/>
<path d="M207.203 188.692C207.144 188.692 207.086 188.68 207.032 188.658C206.977 188.635 206.928 188.602 206.887 188.56C206.845 188.518 206.812 188.469 206.79 188.415C206.767 188.36 206.756 188.302 206.756 188.243V181.343C206.756 181.224 206.804 181.109 206.888 181.025C206.972 180.94 207.087 180.893 207.206 180.893C207.325 180.893 207.44 180.94 207.524 181.025C207.609 181.109 207.656 181.224 207.656 181.343V188.243C207.656 188.302 207.644 188.361 207.621 188.416C207.598 188.47 207.565 188.52 207.523 188.562C207.481 188.603 207.431 188.636 207.376 188.659C207.321 188.681 207.262 188.692 207.203 188.692Z" fill="white"/>
<path d="M216.99 189.647C216.931 189.647 216.872 189.635 216.818 189.613C216.763 189.59 216.714 189.557 216.672 189.515C216.63 189.473 216.597 189.423 216.575 189.369C216.552 189.314 216.541 189.255 216.541 189.196V182.196C216.541 182.077 216.588 181.962 216.673 181.878C216.757 181.794 216.872 181.746 216.991 181.746C217.11 181.746 217.225 181.794 217.309 181.878C217.394 181.962 217.441 182.077 217.441 182.196V189.196C217.441 189.255 217.43 189.314 217.408 189.369C217.385 189.424 217.352 189.474 217.31 189.516C217.268 189.558 217.218 189.591 217.163 189.614C217.108 189.636 217.049 189.647 216.99 189.647Z" fill="white"/>
<path d="M225.702 190.186C225.642 190.186 225.582 190.173 225.526 190.149C225.471 190.125 225.42 190.09 225.378 190.047C225.337 190.003 225.304 189.951 225.282 189.895C225.261 189.838 225.251 189.778 225.253 189.717L225.586 182.565C225.592 182.446 225.645 182.334 225.733 182.253C225.821 182.173 225.938 182.131 226.057 182.136C226.177 182.142 226.289 182.194 226.369 182.283C226.45 182.371 226.492 182.488 226.486 182.607L226.153 189.757C226.148 189.873 226.098 189.982 226.014 190.062C225.93 190.142 225.818 190.187 225.702 190.186Z" fill="white"/>
<path d="M234.876 190.13C234.817 190.13 234.759 190.118 234.705 190.096C234.651 190.073 234.601 190.04 234.56 189.998C234.518 189.956 234.485 189.907 234.463 189.853C234.441 189.798 234.429 189.74 234.429 189.681V182.587C234.429 182.468 234.477 182.353 234.561 182.269C234.645 182.184 234.76 182.137 234.879 182.137C234.999 182.137 235.113 182.184 235.197 182.269C235.282 182.353 235.329 182.468 235.329 182.587V189.682C235.329 189.741 235.317 189.8 235.294 189.854C235.271 189.909 235.238 189.958 235.196 190C235.154 190.042 235.104 190.075 235.049 190.097C234.994 190.119 234.935 190.13 234.876 190.13Z" fill="white"/>
<path d="M242.614 189.713C242.555 189.713 242.497 189.701 242.442 189.678C242.388 189.656 242.339 189.622 242.297 189.58C242.256 189.539 242.223 189.489 242.2 189.434C242.178 189.38 242.167 189.321 242.167 189.262L242.181 182.062C242.181 181.943 242.229 181.828 242.313 181.744C242.397 181.659 242.512 181.612 242.631 181.612C242.751 181.612 242.865 181.659 242.949 181.744C243.034 181.828 243.081 181.943 243.081 182.062L243.065 189.262C243.065 189.321 243.054 189.38 243.031 189.435C243.009 189.49 242.975 189.539 242.933 189.581C242.892 189.623 242.842 189.656 242.787 189.679C242.732 189.702 242.674 189.713 242.614 189.713Z" fill="white"/>
<path d="M250.372 188.692C250.253 188.692 250.139 188.644 250.055 188.56C249.971 188.476 249.923 188.362 249.923 188.243V181.343C249.923 181.224 249.971 181.109 250.055 181.025C250.139 180.94 250.254 180.893 250.373 180.893C250.492 180.893 250.607 180.94 250.691 181.025C250.776 181.109 250.823 181.224 250.823 181.343V188.243C250.823 188.302 250.811 188.361 250.788 188.415C250.766 188.47 250.732 188.519 250.691 188.561C250.649 188.603 250.599 188.636 250.544 188.658C250.49 188.681 250.431 188.692 250.372 188.692Z" fill="white"/>
<path d="M258.877 187.686C258.758 187.686 258.644 187.638 258.56 187.554C258.476 187.47 258.428 187.356 258.428 187.237V179.724C258.428 179.605 258.476 179.49 258.56 179.406C258.644 179.321 258.759 179.274 258.878 179.274C258.998 179.274 259.112 179.321 259.196 179.406C259.281 179.49 259.328 179.605 259.328 179.724V187.237C259.328 187.296 259.317 187.355 259.294 187.41C259.271 187.464 259.238 187.514 259.196 187.556C259.154 187.597 259.105 187.63 259.05 187.653C258.995 187.675 258.936 187.686 258.877 187.686Z" fill="white"/>
<path d="M326.628 105.696C326.529 105.697 326.433 105.663 326.355 105.602L301.797 86.7201C301.751 86.6842 301.712 86.6395 301.682 86.5884C301.653 86.5374 301.634 86.4811 301.626 86.4228C301.619 86.3644 301.623 86.3051 301.638 86.2483C301.653 86.1915 301.68 86.1382 301.716 86.0916C301.752 86.045 301.796 86.0059 301.847 85.9766C301.898 85.9473 301.955 85.9283 302.013 85.9207C302.071 85.9131 302.131 85.9171 302.188 85.9325C302.244 85.9478 302.298 85.9742 302.344 86.0101L326.9 104.891C326.973 104.948 327.026 105.027 327.053 105.116C327.079 105.204 327.077 105.299 327.047 105.387C327.018 105.475 326.962 105.551 326.887 105.605C326.812 105.66 326.722 105.69 326.629 105.691L326.628 105.696Z" fill="white"/>
<path d="M307.635 91.092C307.573 91.0917 307.512 91.0795 307.455 91.056C307.401 91.0323 307.352 90.9981 307.311 90.9554C307.27 90.9127 307.238 90.8624 307.217 90.8074C307.195 90.7523 307.185 90.6936 307.186 90.6345C307.187 90.5754 307.2 90.5171 307.224 90.463L309.967 84.163C309.991 84.1091 310.025 84.0603 310.067 84.0194C310.109 83.9786 310.16 83.9465 310.214 83.925C310.269 83.9035 310.328 83.893 310.387 83.8941C310.445 83.8952 310.504 83.908 310.558 83.9315C310.612 83.9551 310.66 83.9891 310.701 84.0315C310.742 84.0739 310.774 84.124 310.796 84.1788C310.817 84.2337 310.828 84.2922 310.826 84.3511C310.825 84.41 310.813 84.4681 310.789 84.522L308.042 90.823C308.008 90.9025 307.951 90.9702 307.878 91.0179C307.806 91.0657 307.722 91.0914 307.635 91.092Z" fill="white"/>
<path d="M315.324 96.255C315.261 96.2554 315.199 96.2425 315.142 96.217C315.034 96.1689 314.949 96.0796 314.906 95.9688C314.863 95.8581 314.865 95.7348 314.913 95.626L317.497 89.744C317.52 89.6882 317.553 89.6375 317.596 89.5948C317.638 89.5521 317.689 89.5185 317.745 89.4957C317.8 89.473 317.86 89.4617 317.92 89.4624C317.98 89.4632 318.04 89.4761 318.095 89.5002C318.15 89.5244 318.2 89.5594 318.241 89.6031C318.283 89.6468 318.315 89.6984 318.336 89.7548C318.357 89.8112 318.367 89.8713 318.364 89.9314C318.362 89.9916 318.347 90.0506 318.321 90.105L315.736 95.984C315.701 96.0645 315.644 96.133 315.571 96.1812C315.497 96.2293 315.412 96.255 315.324 96.255Z" fill="white"/>
<path d="M322.167 102.267C322.112 102.267 322.058 102.257 322.007 102.237C321.952 102.216 321.901 102.185 321.858 102.144C321.815 102.103 321.781 102.055 321.757 102.001C321.733 101.947 321.719 101.888 321.718 101.829C321.716 101.77 321.727 101.711 321.748 101.656L324.164 95.3562C324.207 95.245 324.292 95.1555 324.401 95.1072C324.51 95.0589 324.634 95.0558 324.745 95.0987C324.856 95.1415 324.945 95.2267 324.994 95.3356C325.042 95.4444 325.045 95.568 325.002 95.6791L322.586 101.979C322.554 102.064 322.496 102.137 322.421 102.188C322.347 102.24 322.258 102.267 322.167 102.267Z" fill="white"/>
<path d="M132.88 68.0281H127.635V82.4531H132.88V68.0281Z" fill="#24EB8F"/>
<path d="M78.9642 82.4531H73.0632V96.8781H78.9642V82.4531Z" fill="#E31A1A"/>
<path d="M269.095 13.3462L265.165 9.41614L254.948 19.6338L258.878 23.5639L269.095 13.3462Z" fill="#D630B6"/>
<path d="M163.843 155.337L161.942 150.112L148.359 155.054L150.26 160.279L163.843 155.337Z" fill="#264CED"/>
<path d="M120.687 138.816L118.786 133.591L105.203 138.533L107.104 143.758L120.687 138.816Z" fill="#F48A2F"/>
<path d="M267.525 52.9456L262.021 53.7191L264.032 68.0285L269.536 67.255L267.525 52.9456Z" fill="#9622DE"/>
<path d="M83.7521 28.821L81.9402 23.5631L68.2705 28.2738L70.0824 33.5317L83.7521 28.821Z" fill="#E8E81B"/>
<path d="M152.508 23.842L150.696 18.5841L137.027 23.2948L138.838 28.5527L152.508 23.842Z" fill="#2582EF"/>
</svg>
